<?xml version="1.0" encoding="utf-8"?>
<!-- Generator: Adobe Illustrator 16.0.0, SVG Export Plug-In . SVG Version: 6.00 Build 0)  -->
<!DOCTYPE svg PUBLIC "-//W3C//DTD SVG 1.1//EN" "http://www.w3.org/Graphics/SVG/1.1/DTD/svg11.dtd">
<svg version="1.1" id="Capa_1" xmlns="http://www.w3.org/2000/svg" xmlns:xlink="http://www.w3.org/1999/xlink" x="0px" y="0px"
	 width="425.197px" height="425.197px" viewBox="0 0 425.197 425.197" enable-background="new 0 0 425.197 425.197"
	 xml:space="preserve">
<g>
	<rect fill="none" width="425.197" height="425.196"/>
</g>
<g>
	<g>
		<path fill="#DDD6D5" d="M335.622,80.746c0,0-53.965-19.898-120.53-19.898c-66.571,0-120.536,19.898-120.536,19.898
			s0.601,42.906,0.01,114.618c-0.584,71.714,21.168,109.33,21.168,109.33c31.738,51.729,99.337,77.237,99.337,77.237
			s67.599-25.509,99.334-77.237c0,0,21.753-37.616,21.171-109.33c-0.592-71.712,0.008-114.618,0.008-114.618H335.622z"/>
		<path fill="#D14646" d="M215.172,203.964v174.895h7.2c18.323-8.19,66.648-32.789,92.032-74.164c0,0,19.996-34.625,21.12-100.73
			H215.172z"/>
		<path fill="#D14646" d="M219.46,207.482v145.702h5.655c14.414-6.823,52.421-27.314,72.378-61.782c0,0,15.726-28.848,16.608-83.92
			H219.46z"/>
		<path fill="#0D050D" d="M215.092,203.964H94.616c1.117,66.105,21.117,100.73,21.117,100.73
			c25.384,41.375,73.704,65.974,92.033,74.164h7.325V203.964z"/>
		<path fill="#D14646" d="M94.565,195.364c-0.021,2.932,0.008,5.781,0.051,8.6h120.476V60.848
			c-66.571,0-120.536,19.898-120.536,19.898S95.156,123.652,94.565,195.364z"/>
		<path fill="#0D050D" d="M215.172,203.964h120.353c0.041-2.818,0.067-5.668,0.051-8.6c-0.592-71.712,0.008-114.618,0.008-114.618
			h0.039c0,0-53.917-19.884-120.45-19.898V203.964z"/>
		<path fill="#160F16" d="M212.556,208.677h-98.724c0.917,54.168,17.302,82.542,17.302,82.542
			c20.805,33.902,60.397,54.057,75.42,60.772h6.002V208.677z"/>
		<path fill="#D14646" d="M114.518,193.201c-0.017,2.365,0.005,4.67,0.043,6.945h97.313V84.536
			c-53.775,0-97.364,16.077-97.364,16.077S114.993,135.274,114.518,193.201z"/>
		<path fill="#160F16" d="M219.396,199.047h97.854c0.035-2.291,0.062-4.608,0.035-6.986c-0.476-58.31,0.018-93.196,0.018-93.196
			h0.029c0,0-43.842-16.164-97.936-16.179V199.047z"/>
		<path fill="#B5AC9F" d="M335.622,80.746c0,0-53.965-19.898-120.53-19.898c-66.571,0-120.536,19.898-120.536,19.898
			s0.601,42.906,0.01,114.618c-0.584,71.714,21.168,109.33,21.168,109.33c31.738,51.729,99.337,77.237,99.337,77.237
			s67.599-25.509,99.334-77.237c0,0,21.753-37.616,21.171-109.33c-0.592-71.712,0.008-114.618,0.008-114.618H335.622z
			 M320.218,95.25c0,0-0.522,40.865-0.012,103.435c0.514,62.567-18.457,95.39-18.457,95.39
			c-27.698,45.135-86.674,67.39-86.674,67.39s-58.981-22.255-86.675-67.39c0,0-18.976-32.822-18.461-95.39
			c0.509-62.569-0.018-103.435-0.018-103.435s47.083-17.359,105.17-17.359c58.08,0,105.165,17.359,105.165,17.359H320.218z"/>
		<g>
			<path fill="#6D605E" d="M146.182,316.533c-6.605-6.727-12.714-14.205-17.781-22.459c0,0-18.976-32.822-18.461-95.39
				c0.509-62.569-0.018-103.435-0.018-103.435s47.083-17.359,105.17-17.359c52.058,0,95.253,13.938,103.657,16.833
				c0.009-0.602,0.014-0.933,0.014-0.933h0.029c0,0-47.081-17.358-105.161-17.358c-58.082,0-105.167,17.358-105.167,17.358
				s0.528,40.869,0.014,103.436c-0.514,62.567,18.463,95.393,18.463,95.393C132.376,301.474,139.021,309.436,146.182,316.533z"/>
			<path fill="#6D605E" d="M335.622,80.746c0,0-0.527-0.197-1.513-0.536c-0.076,6.502-0.534,48.001,0,113.696
				c0.593,71.713-21.156,109.333-21.156,109.333c-31.745,51.728-99.34,77.236-99.34,77.236s-43.628-16.467-77.241-49.762
				c33.798,34.272,78.698,51.218,78.698,51.218s67.599-25.509,99.334-77.237c0,0,21.753-37.616,21.171-109.33
				c-0.592-71.712,0.008-114.618,0.008-114.618H335.622z"/>
		</g>
		<g>
			<g>
				<g>
					<path fill="#DFCFC4" d="M321.902,96.904c0,0-0.597-0.221-1.696-0.598c-0.078,6.773-0.463,45.656,0,102.378
						c0.514,62.567-18.457,95.39-18.457,95.39c-27.698,45.135-86.674,67.39-86.674,67.39s-37.992-14.354-67.309-43.347
						c29.522,30.107,68.957,44.996,68.957,44.996s58.985-22.255,86.673-67.387c0,0,18.976-32.823,18.467-95.388
						c-0.514-62.571,0.009-103.435,0.009-103.435H321.902z"/>
				</g>
				<g>
					<path fill="#DFCFC4" d="M117.383,306.353c0,0-21.747-37.623-21.165-109.337c0.592-71.709-0.009-114.62-0.009-114.62
						s53.966-19.896,120.54-19.896c59.695,0,109.227,15.993,118.816,19.296c0.01-0.688,0.018-1.049,0.018-1.049h0.039
						c0,0-53.965-19.898-120.53-19.898c-66.571,0-120.536,19.898-120.536,19.898s0.601,42.906,0.01,114.618
						c-0.584,71.714,21.168,109.33,21.168,109.33c6.279,10.239,13.961,19.441,22.25,27.625
						C130.333,324.556,123.242,315.9,117.383,306.353z"/>
				</g>
			</g>
		</g>
		<g>
			<g>
				<g>
					<circle fill="#6D605E" cx="104.276" cy="87.499" r="2.492"/>
				</g>
				<g>
					<circle fill="#6D605E" cx="104.276" cy="112.938" r="2.492"/>
				</g>
				<g>
					<circle fill="#6D605E" cx="104.276" cy="138.373" r="2.491"/>
				</g>
				<g>
					<path fill="#6D605E" d="M104.276,166.304c1.374,0,2.492-1.114,2.492-2.494c0-1.373-1.118-2.49-2.492-2.49
						c-1.377,0-2.489,1.118-2.489,2.49C101.787,165.189,102.899,166.304,104.276,166.304z"/>
				</g>
				<g>
					<path fill="#6D605E" d="M104.276,191.744c1.374,0,2.492-1.116,2.492-2.49c0-1.38-1.118-2.493-2.492-2.493
						c-1.377,0-2.489,1.112-2.489,2.493C101.787,190.628,102.899,191.744,104.276,191.744z"/>
				</g>
				<g>
					<circle fill="#6D605E" cx="104.278" cy="214.69" r="2.491"/>
				</g>
				<g>
					<path fill="#6D605E" d="M106.328,237.636c-1.38,0-2.493,1.119-2.493,2.49c0,1.378,1.113,2.492,2.493,2.492
						c1.378,0,2.488-1.114,2.488-2.492C108.816,238.755,107.706,237.636,106.328,237.636z"/>
				</g>
				<g>
					<path fill="#6D605E" d="M111.309,263.074c-1.379,0-2.492,1.117-2.492,2.49c0,1.377,1.113,2.49,2.492,2.49
						c1.372,0,2.493-1.113,2.493-2.49C113.802,264.191,112.681,263.074,111.309,263.074z"/>
				</g>
				<g>
					<circle fill="#6D605E" cx="118.95" cy="291.003" r="2.493"/>
				</g>
				<g>
					<path fill="#6D605E" d="M135.489,313.952c-1.375,0-2.483,1.112-2.483,2.491c0,1.378,1.108,2.492,2.483,2.492
						c1.38,0,2.494-1.114,2.494-2.492C137.983,315.064,136.869,313.952,135.489,313.952z"/>
				</g>
				<g>
					<circle fill="#6D605E" cx="162.722" cy="341.881" r="2.491"/>
				</g>
				<g>
					<path fill="#6D605E" d="M215.995,369.129c-1.371,0-2.489,1.114-2.489,2.49c0,1.375,1.118,2.49,2.489,2.49
						c1.375,0,2.492-1.115,2.492-2.49C218.487,370.243,217.37,369.129,215.995,369.129z"/>
				</g>
				<g>
					<path fill="#6D605E" d="M186.062,354.59c-1.375,0-2.488,1.113-2.488,2.494c0,1.374,1.113,2.491,2.488,2.491
						c1.379,0,2.497-1.117,2.497-2.491C188.559,355.703,187.44,354.59,186.062,354.59z"/>
				</g>
				<g>
					<path fill="#6D605E" d="M327.716,110.445c-1.381,0-2.49,1.113-2.49,2.492c0,1.375,1.109,2.493,2.49,2.493
						c1.373,0,2.488-1.117,2.488-2.493C330.204,111.559,329.089,110.445,327.716,110.445z"/>
				</g>
				<g>
					<path fill="#6D605E" d="M327.716,135.881c-1.381,0-2.49,1.117-2.49,2.492c0,1.378,1.109,2.491,2.49,2.491
						c1.373,0,2.488-1.113,2.488-2.491C330.204,136.998,329.089,135.881,327.716,135.881z"/>
				</g>
				<g>
					<path fill="#6D605E" d="M327.716,161.32c-1.381,0-2.49,1.118-2.49,2.49c0,1.379,1.109,2.494,2.49,2.494
						c1.373,0,2.488-1.114,2.488-2.494C330.204,162.438,329.089,161.32,327.716,161.32z"/>
				</g>
				<g>
					<path fill="#6D605E" d="M327.716,186.761c-1.381,0-2.49,1.112-2.49,2.493c0,1.374,1.109,2.49,2.49,2.49
						c1.373,0,2.488-1.116,2.488-2.49C330.204,187.874,329.089,186.761,327.716,186.761z"/>
				</g>
				<g>
					<path fill="#6D605E" d="M327.716,212.199c-1.381,0-2.49,1.115-2.49,2.491s1.109,2.492,2.49,2.492
						c1.373,0,2.488-1.116,2.488-2.492S329.089,212.199,327.716,212.199z"/>
				</g>
				<g>
					<path fill="#6D605E" d="M325.663,237.636c-1.376,0-2.484,1.119-2.484,2.49c0,1.378,1.108,2.492,2.484,2.492
						c1.379,0,2.488-1.114,2.488-2.492C328.151,238.755,327.042,237.636,325.663,237.636z"/>
				</g>
				<g>
					<path fill="#6D605E" d="M320.686,263.074c-1.379,0-2.493,1.117-2.493,2.49c0,1.377,1.114,2.49,2.493,2.49
						c1.37,0,2.493-1.113,2.493-2.49C323.179,264.191,322.056,263.074,320.686,263.074z"/>
				</g>
				<g>
					<path fill="#6D605E" d="M313.04,288.511c-1.38,0-2.489,1.116-2.489,2.492s1.109,2.493,2.489,2.493
						c1.374,0,2.483-1.117,2.483-2.493S314.414,288.511,313.04,288.511z"/>
				</g>
				<g>
					<path fill="#6D605E" d="M296.5,313.952c-1.379,0-2.493,1.112-2.493,2.491c0,1.378,1.114,2.492,2.493,2.492
						s2.493-1.114,2.493-2.492C298.993,315.064,297.879,313.952,296.5,313.952z"/>
				</g>
				<g>
					<path fill="#6D605E" d="M269.274,339.39c-1.381,0-2.493,1.116-2.493,2.49c0,1.378,1.112,2.492,2.493,2.492
						c1.37,0,2.489-1.114,2.489-2.492C271.764,340.506,270.645,339.39,269.274,339.39z"/>
				</g>
				<g>
					<path fill="#6D605E" d="M245.924,354.59c-1.375,0-2.487,1.113-2.487,2.494c0,1.374,1.112,2.491,2.487,2.491
						c1.376,0,2.497-1.117,2.497-2.491C248.421,355.703,247.3,354.59,245.924,354.59z"/>
				</g>
				<g>
					<path fill="#6D605E" d="M130.315,77.431c-1.374,0-2.493,1.12-2.493,2.496c0,1.374,1.119,2.491,2.493,2.491
						c1.379,0,2.492-1.117,2.492-2.491C132.808,78.55,131.694,77.431,130.315,77.431z"/>
				</g>
				<g>
					<path fill="#6D605E" d="M157.499,71.676c-1.371,0-2.488,1.116-2.488,2.49c0,1.378,1.117,2.493,2.488,2.493
						c1.375,0,2.496-1.115,2.496-2.493C159.995,72.792,158.874,71.676,157.499,71.676z"/>
				</g>
				<g>
					<path fill="#6D605E" d="M186.456,67.471c-1.371,0-2.493,1.114-2.493,2.489c0,1.377,1.122,2.489,2.493,2.489
						c1.379,0,2.492-1.112,2.492-2.489C188.948,68.585,187.835,67.471,186.456,67.471z"/>
				</g>
				<g>
					<path fill="#6D605E" d="M215.995,66.695c-1.371,0-2.489,1.115-2.489,2.487c0,1.379,1.118,2.493,2.489,2.493
						c1.375,0,2.492-1.114,2.492-2.493C218.487,67.811,217.37,66.695,215.995,66.695z"/>
				</g>
				<g>
					<path fill="#6D605E" d="M327.716,89.991c1.373,0,2.488-1.117,2.488-2.494c0-1.375-1.115-2.49-2.488-2.49
						c-1.381,0-2.49,1.115-2.49,2.49C325.226,88.874,326.335,89.991,327.716,89.991z"/>
				</g>
				<g>
					<path fill="#6D605E" d="M301.671,77.431c-1.374,0-2.485,1.12-2.485,2.496c0,1.374,1.111,2.491,2.485,2.491
						c1.379,0,2.493-1.117,2.493-2.491C304.164,78.55,303.05,77.431,301.671,77.431z"/>
				</g>
				<g>
					<circle fill="#6D605E" cx="274.491" cy="74.167" r="2.492"/>
				</g>
				<g>
					<path fill="#6D605E" d="M245.535,72.449c1.379,0,2.488-1.112,2.488-2.489c0-1.375-1.109-2.489-2.488-2.489
						c-1.381,0-2.493,1.114-2.493,2.489C243.042,71.337,244.154,72.449,245.535,72.449z"/>
				</g>
			</g>
		</g>
		<g>
			<g>
				<g>
					<circle fill="#DFCFC4" cx="102.648" cy="86.141" r="2.491"/>
				</g>
				<g>
					<circle fill="#DFCFC4" cx="102.648" cy="111.58" r="2.491"/>
				</g>
				<g>
					<circle fill="#DFCFC4" cx="102.648" cy="137.018" r="2.492"/>
				</g>
				<g>
					<path fill="#DFCFC4" d="M102.648,164.948c1.374,0,2.488-1.115,2.488-2.49c0-1.379-1.114-2.494-2.488-2.494
						c-1.376,0-2.489,1.114-2.489,2.494C100.159,163.833,101.272,164.948,102.648,164.948z"/>
				</g>
				<g>
					<circle fill="#DFCFC4" cx="102.648" cy="187.895" r="2.491"/>
				</g>
				<g>
					<path fill="#DFCFC4" d="M105.137,213.334c0-1.379-1.114-2.492-2.488-2.492c-1.376,0-2.489,1.113-2.489,2.492
						c0,1.371,1.113,2.49,2.489,2.49C104.022,215.824,105.137,214.705,105.137,213.334z"/>
				</g>
				<g>
					<path fill="#DFCFC4" d="M104.695,236.28c-1.375,0-2.485,1.114-2.485,2.49s1.11,2.492,2.485,2.492
						c1.38,0,2.497-1.116,2.497-2.492S106.075,236.28,104.695,236.28z"/>
				</g>
				<g>
					<path fill="#DFCFC4" d="M109.678,261.716c-1.376,0-2.485,1.119-2.485,2.493c0,1.375,1.109,2.49,2.485,2.49
						c1.379,0,2.488-1.115,2.488-2.49C112.166,262.835,111.057,261.716,109.678,261.716z"/>
				</g>
				<g>
					<path fill="#DFCFC4" d="M117.323,287.156c-1.374,0-2.488,1.115-2.488,2.491c0,1.38,1.114,2.49,2.488,2.49
						c1.379,0,2.489-1.11,2.489-2.49C119.812,288.271,118.702,287.156,117.323,287.156z"/>
				</g>
				<g>
					<path fill="#DFCFC4" d="M133.861,312.596c-1.371,0-2.487,1.111-2.487,2.492c0,1.375,1.116,2.49,2.487,2.49
						c1.379,0,2.493-1.115,2.493-2.49C136.354,313.707,135.24,312.596,133.861,312.596z"/>
				</g>
				<g>
					<path fill="#DFCFC4" d="M161.089,338.034c-1.372,0-2.484,1.114-2.484,2.491c0,1.375,1.112,2.49,2.484,2.49
						c1.379,0,2.492-1.115,2.492-2.49C163.581,339.148,162.468,338.034,161.089,338.034z"/>
				</g>
				<g>
					<path fill="#DFCFC4" d="M214.371,367.768c-1.384,0-2.497,1.121-2.497,2.494c0,1.377,1.113,2.491,2.497,2.491
						c1.367,0,2.489-1.114,2.489-2.491C216.86,368.889,215.738,367.768,214.371,367.768z"/>
				</g>
				<g>
					<path fill="#DFCFC4" d="M184.434,353.232c-1.374,0-2.484,1.115-2.484,2.492c0,1.373,1.11,2.494,2.484,2.494
						c1.38,0,2.493-1.121,2.493-2.494C186.927,354.348,185.813,353.232,184.434,353.232z"/>
				</g>
				<g>
					<path fill="#DFCFC4" d="M326.083,109.089c-1.375,0-2.489,1.113-2.489,2.49c0,1.375,1.114,2.492,2.489,2.492
						c1.379,0,2.493-1.117,2.493-2.492C328.576,110.202,327.462,109.089,326.083,109.089z"/>
				</g>
				<g>
					<path fill="#DFCFC4" d="M326.083,134.526c-1.375,0-2.489,1.116-2.489,2.491c0,1.375,1.114,2.493,2.489,2.493
						c1.379,0,2.493-1.118,2.493-2.493C328.576,135.642,327.462,134.526,326.083,134.526z"/>
				</g>
				<g>
					<path fill="#DFCFC4" d="M326.083,159.964c-1.375,0-2.489,1.114-2.489,2.494c0,1.375,1.114,2.49,2.489,2.49
						c1.379,0,2.493-1.115,2.493-2.49C328.576,161.078,327.462,159.964,326.083,159.964z"/>
				</g>
				<g>
					<path fill="#DFCFC4" d="M326.083,185.403c-1.375,0-2.489,1.116-2.489,2.493c0,1.376,1.114,2.49,2.489,2.49
						c1.379,0,2.493-1.114,2.493-2.49C328.576,186.519,327.462,185.403,326.083,185.403z"/>
				</g>
				<g>
					<path fill="#DFCFC4" d="M326.083,210.842c-1.375,0-2.489,1.113-2.489,2.492c0,1.371,1.114,2.49,2.489,2.49
						c1.379,0,2.493-1.119,2.493-2.49C328.576,211.955,327.462,210.842,326.083,210.842z"/>
				</g>
				<g>
					<path fill="#DFCFC4" d="M324.035,236.28c-1.38,0-2.489,1.114-2.489,2.49s1.109,2.492,2.489,2.492
						c1.374,0,2.493-1.116,2.493-2.492S325.409,236.28,324.035,236.28z"/>
				</g>
				<g>
					<path fill="#DFCFC4" d="M319.058,261.716c-1.379,0-2.497,1.119-2.497,2.493c0,1.375,1.118,2.49,2.497,2.49
						c1.371,0,2.488-1.115,2.488-2.49C321.546,262.835,320.429,261.716,319.058,261.716z"/>
				</g>
				<g>
					<path fill="#DFCFC4" d="M311.411,287.156c-1.374,0-2.496,1.115-2.496,2.491c0,1.38,1.122,2.49,2.496,2.49
						c1.376,0,2.488-1.11,2.488-2.49C313.899,288.271,312.787,287.156,311.411,287.156z"/>
				</g>
				<g>
					<path fill="#DFCFC4" d="M294.872,312.596c-1.379,0-2.492,1.111-2.492,2.492c0,1.375,1.113,2.49,2.492,2.49
						c1.371,0,2.493-1.115,2.493-2.49C297.365,313.707,296.243,312.596,294.872,312.596z"/>
				</g>
				<g>
					<path fill="#DFCFC4" d="M267.638,338.034c-1.37,0-2.488,1.114-2.488,2.491c0,1.375,1.118,2.49,2.488,2.49
						c1.379,0,2.502-1.115,2.502-2.49C270.14,339.148,269.017,338.034,267.638,338.034z"/>
				</g>
				<g>
					<path fill="#DFCFC4" d="M244.297,353.232c-1.376,0-2.493,1.115-2.493,2.492c0,1.373,1.117,2.494,2.493,2.494
						c1.374,0,2.493-1.121,2.493-2.494C246.79,354.348,245.671,353.232,244.297,353.232z"/>
				</g>
				<g>
					<path fill="#DFCFC4" d="M128.688,76.079c-1.379,0-2.489,1.113-2.489,2.492c0,1.374,1.11,2.49,2.489,2.49
						c1.376,0,2.493-1.117,2.493-2.49C131.181,77.192,130.063,76.079,128.688,76.079z"/>
				</g>
				<g>
					<path fill="#DFCFC4" d="M155.876,70.32c-1.38,0-2.494,1.114-2.494,2.487c0,1.381,1.114,2.494,2.494,2.494
						c1.374,0,2.483-1.113,2.483-2.494C158.359,71.435,157.25,70.32,155.876,70.32z"/>
				</g>
				<g>
					<path fill="#DFCFC4" d="M184.828,66.111c-1.376,0-2.493,1.117-2.493,2.491c0,1.376,1.117,2.494,2.493,2.494
						c1.374,0,2.493-1.117,2.493-2.494C187.321,67.229,186.202,66.111,184.828,66.111z"/>
				</g>
				<g>
					<path fill="#DFCFC4" d="M214.371,65.337c-1.384,0-2.497,1.115-2.497,2.49c0,1.377,1.113,2.493,2.497,2.493
						c1.367,0,2.489-1.116,2.489-2.493C216.86,66.452,215.738,65.337,214.371,65.337z"/>
				</g>
				<g>
					<circle fill="#DFCFC4" cx="326.083" cy="86.141" r="2.491"/>
				</g>
				<g>
					<path fill="#DFCFC4" d="M300.043,76.079c-1.372,0-2.484,1.113-2.484,2.492c0,1.374,1.112,2.49,2.484,2.49
						c1.379,0,2.493-1.117,2.493-2.49C302.536,77.192,301.422,76.079,300.043,76.079z"/>
				</g>
				<g>
					<path fill="#DFCFC4" d="M272.864,70.32c-1.38,0-2.494,1.114-2.494,2.487c0,1.381,1.114,2.494,2.494,2.494
						c1.37,0,2.488-1.113,2.488-2.494C275.353,71.435,274.234,70.32,272.864,70.32z"/>
				</g>
				<g>
					<path fill="#DFCFC4" d="M243.902,71.096c1.379,0,2.498-1.117,2.498-2.494c0-1.374-1.119-2.491-2.498-2.491
						c-1.375,0-2.489,1.117-2.489,2.491C241.413,69.979,242.527,71.096,243.902,71.096z"/>
				</g>
			</g>
		</g>
		<g>
			<g>
				<g>
					<path fill="#8F887E" d="M103.372,89.265c1.374,0,2.498-1.114,2.498-2.493c0-1.371-1.124-2.49-2.498-2.49
						c-1.375,0-2.489,1.119-2.489,2.49C100.883,88.15,101.997,89.265,103.372,89.265z"/>
				</g>
				<g>
					<path fill="#8F887E" d="M103.372,114.701c1.374,0,2.498-1.111,2.498-2.487c0-1.377-1.124-2.491-2.498-2.491
						c-1.375,0-2.489,1.114-2.489,2.491C100.883,113.59,101.997,114.701,103.372,114.701z"/>
				</g>
				<g>
					<path fill="#8F887E" d="M103.372,140.142c1.374,0,2.498-1.116,2.498-2.491s-1.124-2.493-2.498-2.493
						c-1.375,0-2.489,1.118-2.489,2.493S101.997,140.142,103.372,140.142z"/>
				</g>
				<g>
					<path fill="#8F887E" d="M103.372,165.583c1.374,0,2.498-1.118,2.498-2.491c0-1.384-1.124-2.495-2.498-2.495
						c-1.375,0-2.489,1.111-2.489,2.495C100.883,164.465,101.997,165.583,103.372,165.583z"/>
				</g>
				<g>
					<path fill="#8F887E" d="M103.372,191.019c1.374,0,2.498-1.114,2.498-2.492c0-1.374-1.124-2.49-2.498-2.49
						c-1.375,0-2.489,1.116-2.489,2.49C100.883,189.904,101.997,191.019,103.372,191.019z"/>
				</g>
				<g>
					<path fill="#8F887E" d="M105.87,213.965c0-1.372-1.124-2.49-2.498-2.49c-1.375,0-2.489,1.118-2.489,2.49
						c0,1.377,1.114,2.493,2.489,2.493C104.746,216.458,105.87,215.342,105.87,213.965z"/>
				</g>
				<g>
					<path fill="#8F887E" d="M105.419,236.913c-1.371,0-2.489,1.112-2.489,2.493c0,1.371,1.118,2.487,2.489,2.487
						c1.376,0,2.492-1.116,2.492-2.487C107.911,238.025,106.795,236.913,105.419,236.913z"/>
				</g>
				<g>
					<path fill="#8F887E" d="M110.4,262.353c-1.374,0-2.489,1.113-2.489,2.488c0,1.378,1.115,2.493,2.489,2.493
						c1.381,0,2.498-1.115,2.498-2.493C112.898,263.466,111.781,262.353,110.4,262.353z"/>
				</g>
				<g>
					<path fill="#8F887E" d="M118.047,287.787c-1.375,0-2.487,1.117-2.487,2.491c0,1.379,1.112,2.492,2.487,2.492
						c1.376,0,2.493-1.113,2.493-2.492C120.54,288.904,119.423,287.787,118.047,287.787z"/>
				</g>
				<g>
					<path fill="#8F887E" d="M134.586,313.228c-1.37,0-2.493,1.115-2.493,2.492c0,1.376,1.123,2.49,2.493,2.49
						c1.379,0,2.493-1.114,2.493-2.49C137.079,314.343,135.965,313.228,134.586,313.228z"/>
				</g>
				<g>
					<path fill="#8F887E" d="M161.82,338.667c-1.384,0-2.496,1.114-2.496,2.489s1.112,2.494,2.496,2.494
						c1.372,0,2.485-1.119,2.485-2.494S163.192,338.667,161.82,338.667z"/>
				</g>
				<g>
					<path fill="#8F887E" d="M215.092,368.401c-1.374,0-2.493,1.118-2.493,2.493c0,1.378,1.119,2.492,2.493,2.492
						s2.489-1.114,2.489-2.492C217.581,369.52,216.466,368.401,215.092,368.401z"/>
				</g>
				<g>
					<path fill="#8F887E" d="M185.162,353.867c-1.379,0-2.493,1.116-2.493,2.492c0,1.374,1.114,2.49,2.493,2.49
						c1.38,0,2.492-1.116,2.492-2.49C187.654,354.983,186.542,353.867,185.162,353.867z"/>
				</g>
				<g>
					<path fill="#8F887E" d="M326.812,109.723c-1.381,0-2.494,1.114-2.494,2.491c0,1.376,1.113,2.487,2.494,2.487
						c1.37,0,2.492-1.111,2.492-2.487C329.304,110.837,328.182,109.723,326.812,109.723z"/>
				</g>
				<g>
					<path fill="#8F887E" d="M326.812,135.158c-1.381,0-2.494,1.118-2.494,2.493s1.113,2.491,2.494,2.491
						c1.37,0,2.492-1.116,2.492-2.491S328.182,135.158,326.812,135.158z"/>
				</g>
				<g>
					<path fill="#8F887E" d="M326.812,160.597c-1.381,0-2.494,1.111-2.494,2.495c0,1.373,1.113,2.491,2.494,2.491
						c1.37,0,2.492-1.118,2.492-2.491C329.304,161.708,328.182,160.597,326.812,160.597z"/>
				</g>
				<g>
					<path fill="#8F887E" d="M326.812,186.036c-1.381,0-2.494,1.116-2.494,2.49c0,1.378,1.113,2.492,2.494,2.492
						c1.37,0,2.492-1.114,2.492-2.492C329.304,187.152,328.182,186.036,326.812,186.036z"/>
				</g>
				<g>
					<path fill="#8F887E" d="M326.812,211.475c-1.381,0-2.494,1.118-2.494,2.49c0,1.377,1.113,2.493,2.494,2.493
						c1.37,0,2.492-1.116,2.492-2.493C329.304,212.593,328.182,211.475,326.812,211.475z"/>
				</g>
				<g>
					<path fill="#8F887E" d="M324.764,236.913c-1.38,0-2.498,1.112-2.498,2.493c0,1.371,1.118,2.487,2.498,2.487
						c1.37,0,2.489-1.116,2.489-2.487C327.253,238.025,326.134,236.913,324.764,236.913z"/>
				</g>
				<g>
					<path fill="#8F887E" d="M319.776,262.353c-1.374,0-2.492,1.113-2.492,2.488c0,1.378,1.118,2.493,2.492,2.493
						c1.38,0,2.489-1.115,2.489-2.493C322.266,263.466,321.156,262.353,319.776,262.353z"/>
				</g>
				<g>
					<path fill="#8F887E" d="M312.136,287.787c-1.375,0-2.494,1.117-2.494,2.491c0,1.379,1.119,2.492,2.494,2.492
						s2.488-1.113,2.488-2.492C314.624,288.904,313.511,287.787,312.136,287.787z"/>
				</g>
				<g>
					<path fill="#8F887E" d="M295.591,313.228c-1.369,0-2.488,1.115-2.488,2.492c0,1.376,1.119,2.49,2.488,2.49
						c1.377,0,2.494-1.114,2.494-2.49C298.085,314.343,296.968,313.228,295.591,313.228z"/>
				</g>
				<g>
					<path fill="#8F887E" d="M268.366,338.667c-1.379,0-2.494,1.114-2.494,2.489s1.115,2.494,2.494,2.494
						c1.375,0,2.484-1.119,2.484-2.494S269.741,338.667,268.366,338.667z"/>
				</g>
				<g>
					<path fill="#8F887E" d="M245.024,353.867c-1.379,0-2.497,1.116-2.497,2.492c0,1.374,1.118,2.49,2.497,2.49
						c1.376,0,2.488-1.116,2.488-2.49C247.513,354.983,246.4,353.867,245.024,353.867z"/>
				</g>
				<g>
					<path fill="#8F887E" d="M129.415,76.711c-1.375,0-2.497,1.114-2.497,2.49c0,1.377,1.122,2.492,2.497,2.492
						c1.371,0,2.489-1.115,2.489-2.492C131.904,77.825,130.786,76.711,129.415,76.711z"/>
				</g>
				<g>
					<path fill="#8F887E" d="M156.595,70.953c-1.379,0-2.488,1.113-2.488,2.492c0,1.375,1.109,2.492,2.488,2.492
						c1.375,0,2.489-1.117,2.489-2.492C159.084,72.066,157.97,70.953,156.595,70.953z"/>
				</g>
				<g>
					<path fill="#8F887E" d="M185.548,66.745c-1.371,0-2.488,1.118-2.488,2.492c0,1.375,1.117,2.494,2.488,2.494
						c1.379,0,2.493-1.118,2.493-2.494C188.041,67.862,186.927,66.745,185.548,66.745z"/>
				</g>
				<g>
					<path fill="#8F887E" d="M215.092,65.968c-1.374,0-2.493,1.116-2.493,2.493c0,1.376,1.119,2.493,2.493,2.493
						s2.489-1.116,2.489-2.493C217.581,67.083,216.466,65.968,215.092,65.968z"/>
				</g>
				<g>
					<path fill="#8F887E" d="M326.812,89.265c1.37,0,2.492-1.114,2.492-2.493c0-1.371-1.122-2.49-2.492-2.49
						c-1.381,0-2.494,1.119-2.494,2.49C324.317,88.15,325.431,89.265,326.812,89.265z"/>
				</g>
				<g>
					<path fill="#8F887E" d="M300.767,76.711c-1.371,0-2.493,1.114-2.493,2.49c0,1.377,1.122,2.492,2.493,2.492
						c1.38,0,2.493-1.115,2.493-2.492C303.26,77.825,302.146,76.711,300.767,76.711z"/>
				</g>
				<g>
					<circle fill="#8F887E" cx="273.584" cy="73.445" r="2.492"/>
				</g>
				<g>
					<path fill="#8F887E" d="M244.626,71.73c1.375,0,2.498-1.118,2.498-2.494c0-1.374-1.123-2.492-2.498-2.492
						c-1.37,0-2.488,1.118-2.488,2.492C242.138,70.612,243.256,71.73,244.626,71.73z"/>
				</g>
			</g>
		</g>
	</g>
</g>
<g>
	<path fill="#FFFFFF" d="M191.859,237.205c-0.42-0.724-1.195-1.17-2.033-1.17h-1.364v-8.065c0-1.298-1.054-2.351-2.352-2.351h-8.546
		c-1.299,0-2.353,1.053-2.353,2.351v8.065h-23.74c-0.838,0-1.612,0.446-2.033,1.17l-13.465,23.209
		c-0.423,0.728-0.424,1.625-0.005,2.354c0.42,0.729,1.197,1.178,2.039,1.178h4.294v24.344c0,2.882,2.23,5.226,4.97,5.226h3.518
		c1.299,0,2.353-1.053,2.353-2.352v-15.858c0-2.89,2.047-5.242,4.562-5.242c2.516,0,4.562,2.353,4.562,5.242v15.858
		c0,1.299,1.053,2.352,2.352,2.352h28.685c2.74,0,4.969-2.344,4.969-5.226v-24.344h5.019c0.841,0,1.618-0.448,2.038-1.178
		c0.421-0.729,0.418-1.627-0.004-2.354L191.859,237.205z M186.894,279.511c-0.083,0.147-0.509,0.457-1.208,0.457h-10.669
		c-0.696,0-1.123-0.31-1.204-0.455v-8.267c0.081-0.145,0.507-0.454,1.204-0.454h10.669c0.7,0,1.127,0.31,1.208,0.455V279.511z"/>
	<path fill="#D14646" d="M193.302,291.164c1.449,0,2.616-1.288,2.616-2.874v-24.484h-51.264v24.484c0,1.586,1.171,2.874,2.617,2.874
		h3.518v-15.858c0-4.194,3.096-7.595,6.914-7.595s6.914,3.4,6.914,7.595v15.858H193.302z M171.461,271.215
		c0-1.532,1.592-2.774,3.556-2.774h10.669c1.965,0,3.56,1.242,3.56,2.774v8.329c0,1.532-1.595,2.774-3.56,2.774h-10.669
		c-1.964,0-3.556-1.242-3.556-2.774V271.215z"/>
	<polygon fill="#D14646" points="186.11,238.388 186.11,227.97 177.564,227.97 177.564,238.388 151.472,238.388 138.008,261.594 
		203.289,261.594 189.826,238.388 	"/>
</g>
<g>
	<path fill="#FFFFFF" d="M152.095,157.704c0.02,0.002,0.04,0.005,0.06,0.007c0.171,0.021,0.344,0.031,0.516,0.031
		c1.217,0,2.334-0.502,3.14-1.318v10.912c0,0.173,0.008,0.348,0.022,0.522c-0.015,0.174-0.022,0.349-0.022,0.522v17.437
		c0,3.268,2.66,5.926,5.93,5.926c1.511,0,2.891-0.568,3.939-1.501c1.029,0.858,2.354,1.378,3.799,1.378
		c3.269,0,5.928-2.658,5.928-5.926v-17.438c0-0.173-0.008-0.349-0.023-0.523c0.016-0.173,0.023-0.348,0.023-0.522v-10.803
		c0.808,0.825,1.93,1.333,3.154,1.333c0.17,0,0.342-0.01,0.512-0.03c0.021-0.003,0.043-0.005,0.062-0.008
		c1.168-0.151,2.207-0.75,2.93-1.686c0.713-0.927,1.025-2.076,0.88-3.235c-1.137-10.128-1.583-12.931-1.812-13.875
		c-1.329-11.388-1.74-13.753-1.965-14.491c-0.973-3.473-2.876-5.208-4.308-6.054c-1.153-0.683-2.268-0.953-3.061-1.059
		c1.967-1.716,3.215-4.24,3.215-7.051c0-5.159-4.198-9.355-9.355-9.355c-5.16,0-9.357,4.197-9.357,9.355
		c0,2.805,1.242,5.325,3.205,7.042c-0.798,0.098-1.944,0.364-3.134,1.068c-1.431,0.845-3.335,2.581-4.308,6.054
		c-0.224,0.736-0.635,3.097-1.965,14.488c-0.227,0.934-0.673,3.726-1.812,13.876c-0.145,1.16,0.168,2.309,0.882,3.238
		C149.888,156.954,150.927,157.553,152.095,157.704z"/>
	<circle fill="#160F16" cx="165.657" cy="110.257" r="6.881"/>
	<path fill="#160F16" d="M152.415,155.25h0.004c1.059,0.138,2.033-0.611,2.172-1.671c0,0,1.725-11.833,1.779-13.488
		c0.256-1.792,1.248-8.743,1.688-12.304h0.226v24.351c0,0.009,0.002,0.018,0.002,0.027v15.173c0,0.178,0.018,0.352,0.043,0.522
		c-0.025,0.171-0.043,0.345-0.043,0.522v17.437c0,1.906,1.547,3.45,3.453,3.45s3.451-1.544,3.451-3.45v-17.437
		c0-0.177-0.018-0.352-0.044-0.522c0.026-0.171,0.044-0.344,0.044-0.522v-10.365h0.834v10.241c0,0.177,0.018,0.352,0.043,0.522
		c-0.025,0.171-0.043,0.345-0.043,0.523v17.438c0,1.905,1.548,3.449,3.453,3.449c1.906,0,3.451-1.544,3.451-3.449v-17.438
		c0-0.178-0.017-0.352-0.043-0.523c0.026-0.17,0.043-0.345,0.043-0.522v-14.836c0.005-0.08,0.013-0.158,0.013-0.239v-24.351h0.23
		c0.439,3.559,1.431,10.503,1.688,12.301c0.052,1.643,1.779,13.491,1.779,13.491c0.138,1.06,1.113,1.809,2.173,1.671h0.004
		c0.512-0.067,0.969-0.332,1.285-0.742c0.314-0.408,0.451-0.917,0.385-1.432c0,0-1.452-12.923-1.778-13.654
		c-0.003-0.008-0.009-0.016-0.012-0.023c-0.309-2.639-1.601-13.615-1.897-14.256c-1.58-5.747-6.026-5.418-6.026-5.418h-2.688
		l0.001,0.001c-0.017,0-0.032-0.001-0.05-0.001h-4.844c-0.015,0-0.029,0.001-0.045,0.001l0.001-0.001h-2.688
		c0,0-4.446-0.328-6.025,5.418c-0.297,0.641-1.591,11.621-1.897,14.258c-0.004,0.008-0.009,0.013-0.013,0.021
		c-0.327,0.731-1.777,13.654-1.777,13.654c-0.067,0.515,0.07,1.023,0.385,1.432C151.446,154.918,151.901,155.182,152.415,155.25z"/>
</g>
<g>
	<path fill="#FFFFFF" d="M230.792,136.418l5.727,2.125c0.169,0.64,0.401,1.299,0.65,2.01l0.007,0.018
		c0.183,0.522,0.372,1.062,0.56,1.649c2.271,7.179,2.49,11.455,2.148,13.933c-1.316,0.971-2.721,2.771-2.377,5.387
		c0.071,0.53,0.153,1.094,0.233,1.64c0.181,1.226,0.479,3.256,0.405,3.907c-0.348,1.027,0.01,2.171,0.896,2.815
		c0.438,0.317,0.953,0.476,1.466,0.476c0.575,0,1.149-0.199,1.614-0.592c0.328-0.279,3.213-2.829,3.447-6.498
		c0.035-0.544,0.123-1.132,0.209-1.701c0.1-0.65,0.193-1.277,0.223-1.886c1.135,0.756,2.641,1.411,4.514,1.958
		c3.553,1.039,8.39,1.693,13.626,1.845c0.114,0.011,1.11,0.138,1.259,0.935c0.223,1.206,1.283,2.13,2.504,2.104
		c1.217-0.031,2.221-0.87,2.394-2.071c0.105-0.388,0.429-1.008,1.432-1.09c5.195-0.319,9.972-1.124,13.455-2.269
		c4.584-1.505,6.888-3.602,6.851-6.233l-0.201-13.29l14.022-4.68c0.993-0.329,1.674-1.249,1.702-2.297
		c0.029-1.048-0.601-2.001-1.574-2.386l-37.709-14.917c-0.596-0.235-1.26-0.234-1.853,0.008l-35.696,14.448
		c-0.955,0.387-1.574,1.319-1.558,2.348C229.183,135.146,229.828,136.06,230.792,136.418z"/>
	<path fill="#D14646" d="M239.522,139.729c0.186,0.529,0.388,1.109,0.59,1.74c2.25,7.111,2.918,12.591,1.993,16.314
		c-0.035,0-0.068,0-0.105,0.001c0,0-2.344,0.977-2.021,3.431c0.322,2.455,0.942,5.661,0.528,6.67c0,0,2.4-2.039,2.573-4.757
		c0.153-2.4,1.084-4.81-0.369-5.269c0.926-3.838,0.252-9.403-2.02-16.575c-0.201-0.639-0.407-1.223-0.595-1.758
		c-0.367-1.043-0.669-1.907-0.737-2.59l0.011,0.003l0,0l6.28,2.333l0.245,16.303c0.043,2.88,8.007,5.147,18.394,5.437l-0.001,0.001
		c0,0,3.046,0.195,3.561,2.97c0,0,0.532-2.832,3.674-3.087c0.014,0,0.023-0.003,0.036-0.005c10.255-0.625,18.023-3.116,17.981-5.973
		l-0.228-15.116l15.752-5.256l-37.709-14.917l-35.695,14.449l7.076,2.625C238.75,137.525,239.097,138.515,239.522,139.729z"/>
</g>
<g>
	<g>
		<path fill="#FFFFFF" d="M293.387,266.973c-0.004-1.166-0.008-1.934-0.008-1.934s-0.031-1.34-1.233-2.075l0.132-0.032
			c-0.864-0.575-3.552-6.077-3.552-6.077s-5.119-18.19-5.475-19.281c-0.355-1.089,0.484-1.277-20.686-1.095
			c-16.431,0.145-19.604-0.001-19.743,1.095l-5.099,18.199c-0.808,2.321-3.667,7.058-3.667,7.058v0.005
			c-0.496,0.405-0.864,1.118-0.864,2.354c0,0.636,0,1.306,0,1.986c-1.035,0.722-1.715,1.896-1.715,3.233
			c0,1.333,0.68,2.51,1.715,3.231c0,0.892,0,1.651,0,2.171c0,2.418,0.754,3.633,4.034,4.233v4.781c0,1.91,1.549,3.461,3.458,3.461
			h2.019c1.909,0,3.46-1.551,3.46-3.461V280.6c4.454,0.052,10.387,0.006,18.286,0.006c6.618,0,11.746-0.002,15.724-0.101v4.321
			c0,1.91,1.55,3.461,3.459,3.461h2.018c1.91,0,3.459-1.551,3.459-3.461v-5.036c3.399-0.705,4.248-2.019,4.271-4.474
			c0.004-0.461,0.006-0.957,0.009-1.473c1.219-0.688,2.039-1.968,2.039-3.435C295.427,268.938,294.605,267.662,293.387,266.973z
			 M240.51,268.209c0,1.539-1.247,2.787-2.786,2.787c-1.538,0-2.785-1.248-2.785-2.787v-2.066c0-1.539,1.247-2.786,2.785-2.786
			c1.539,0,2.786,1.247,2.786,2.786V268.209z M241.114,254.351l4.221-14.582c15.346-0.847,35.449,0,35.449,0l3.354,14.585
			C268.374,254.354,241.114,254.351,241.114,254.351z M291.894,268.209c0,1.539-1.246,2.787-2.785,2.787
			c-1.541,0-2.789-1.248-2.789-2.787v-2.066c0-1.539,1.248-2.786,2.789-2.786c1.539,0,2.785,1.247,2.785,2.786V268.209z"/>
		<path fill="#FFFFFF" d="M285.649,291.853h-2.018c-3.874,0-7.025-3.151-7.025-7.026v-0.693c-3.475,0.038-7.59,0.038-12.157,0.038
			c-2.752,0-5.265,0.006-7.56,0.011c-2.67,0.008-5.045,0.013-7.16,0.007v0.638c0,3.875-3.152,7.026-7.026,7.026h-2.019
			c-3.873,0-7.024-3.151-7.024-7.026v-2.151c-2.737-1.252-4.034-3.485-4.034-6.863v-0.653c-1.095-1.33-1.715-3.004-1.715-4.749
			c0-1.747,0.62-3.421,1.715-4.751v-0.469c0-2.236,0.776-3.676,1.598-4.571c1.03-1.735,2.597-4.556,3.1-5.926l5.017-17.908
			c0.653-3.271,4.359-3.514,5.972-3.619c2.137-0.14,5.602-0.165,11.343-0.206c1.741-0.013,3.692-0.027,5.88-0.046
			c4.538-0.039,8.065-0.062,10.814-0.062c9.643,0,12.235,0,13.287,3.594c0.354,1.091,4.404,15.471,5.434,19.129
			c0.993,2.007,2.141,4.087,2.599,4.712c0.189,0.171,0.358,0.36,0.506,0.563c1.245,1.273,1.742,2.912,1.771,4.107l0.002,0.326
			c1.294,1.378,2.047,3.205,2.047,5.126c0,1.924-0.754,3.753-2.051,5.129c-0.081,3.326-1.454,5.552-4.268,6.845v2.443
			C292.675,288.701,289.523,291.853,285.649,291.853z M283.738,284.721h1.804v-4.931c0-1.69,1.187-3.147,2.842-3.491
			c0.822-0.171,1.22-0.339,1.389-0.427c0.018-0.106,0.038-0.292,0.04-0.588l0.006-0.761c-0.233,0.026-0.47,0.039-0.71,0.039
			c-3.504,0-6.355-2.85-6.355-6.354v-2.066c0-2.57,1.536-4.789,3.738-5.788c-0.299-0.578-0.621-1.221-0.97-1.935
			c-0.095-0.192-0.171-0.393-0.229-0.6c-0.007-0.027-0.015-0.057-0.023-0.085c-0.36,0.12-0.742,0.185-1.131,0.185l-43.025-0.004
			c-0.132,0-0.263-0.008-0.393-0.021c-0.294,0.688-0.661,1.447-1.049,2.202c2.553,0.824,4.405,3.223,4.405,6.046v2.066
			c0,3.504-2.851,6.354-6.353,6.354c-0.328,0-0.65-0.024-0.965-0.073v1.322c0,0.194,0.006,0.341,0.016,0.446
			c0.194,0.073,0.534,0.177,1.094,0.279c1.693,0.311,2.924,1.786,2.924,3.508v4.676h1.805V280.6c0-0.952,0.382-1.866,1.061-2.536
			c0.678-0.67,1.571-1.056,2.548-1.03c2.886,0.034,6.401,0.027,10.669,0.017c2.3-0.005,4.817-0.011,7.575-0.011
			c6.245,0,11.64,0,15.634-0.1c0.981-0.033,1.892,0.342,2.58,1.012c0.688,0.672,1.075,1.592,1.075,2.554V284.721z M245.858,250.784
			l33.8,0.003l-1.737-7.553c-3.417-0.11-9.682-0.275-16.575-0.275c-4.935,0-9.394,0.083-13.294,0.248L245.858,250.784z"/>
	</g>
	<path fill="#160F16" d="M293.387,266.973c-0.004-1.166-0.008-1.934-0.008-1.934s-0.031-1.34-1.233-2.075l0.132-0.032
		c-0.864-0.575-3.552-6.077-3.552-6.077s-5.119-18.19-5.475-19.281c-0.355-1.089,0.484-1.277-20.686-1.095
		c-16.431,0.145-19.604-0.001-19.743,1.095l-5.099,18.199c-0.808,2.321-3.667,7.058-3.667,7.058v0.005
		c-0.496,0.405-0.864,1.118-0.864,2.354c0,0.636,0,1.306,0,1.986c-1.035,0.722-1.715,1.896-1.715,3.233
		c0,1.333,0.68,2.51,1.715,3.231c0,0.892,0,1.651,0,2.171c0,2.418,0.754,3.633,4.034,4.233v4.781c0,1.91,1.549,3.461,3.458,3.461
		h2.019c1.909,0,3.46-1.551,3.46-3.461V280.6c4.454,0.052,10.387,0.006,18.286,0.006c6.618,0,11.746-0.002,15.724-0.101v4.321
		c0,1.91,1.55,3.461,3.459,3.461h2.018c1.91,0,3.459-1.551,3.459-3.461v-5.036c3.399-0.705,4.248-2.019,4.271-4.474
		c0.004-0.461,0.006-0.957,0.009-1.473c1.219-0.688,2.039-1.968,2.039-3.435C295.427,268.938,294.605,267.662,293.387,266.973z
		 M240.51,268.209c0,1.539-1.247,2.787-2.786,2.787c-1.538,0-2.785-1.248-2.785-2.787v-2.066c0-1.539,1.247-2.786,2.785-2.786
		c1.539,0,2.786,1.247,2.786,2.786V268.209z M241.114,254.351l4.221-14.582c15.346-0.847,35.449,0,35.449,0l3.354,14.585
		C268.374,254.354,241.114,254.351,241.114,254.351z M291.894,268.209c0,1.539-1.246,2.787-2.785,2.787
		c-1.541,0-2.789-1.248-2.789-2.787v-2.066c0-1.539,1.248-2.786,2.789-2.786c1.539,0,2.785,1.247,2.785,2.786V268.209z"/>
</g>
</svg>
