<?xml version="1.0" encoding="utf-8"?>
<!-- Generator: Adobe Illustrator 16.0.0, SVG Export Plug-In . SVG Version: 6.00 Build 0)  -->
<!DOCTYPE svg PUBLIC "-//W3C//DTD SVG 1.1//EN" "http://www.w3.org/Graphics/SVG/1.1/DTD/svg11.dtd">
<svg version="1.1" id="Layer_1" xmlns="http://www.w3.org/2000/svg" xmlns:xlink="http://www.w3.org/1999/xlink" x="0px" y="0px"
	 width="245.039px" height="239.695px" viewBox="0 0 245.039 239.695" enable-background="new 0 0 245.039 239.695"
	 xml:space="preserve">
<path fill="#FFFFFF" d="M236.912,118.255c0-62.064-50.313-112.376-112.375-112.376c-62.062,0-112.375,50.312-112.375,112.376
	c0,62.062,50.312,112.373,112.375,112.373c0.322,0,0.64-0.022,0.962-0.022V152.21H98.442v-31.336h27.057V97.769
	c0-26.816,16.378-41.419,40.296-41.419c11.461,0,21.31,0.854,24.18,1.234V85.61l-16.593,0.007c-13.009,0-15.525,6.181-15.525,15.252
	v20.005h31.026l-4.04,31.336h-26.986v73.396C203.649,211.407,236.912,168.716,236.912,118.255z"/>
</svg>
