<?xml version="1.0" encoding="utf-8"?>
<!-- Generator: Adobe Illustrator 16.0.0, SVG Export Plug-In . SVG Version: 6.00 Build 0)  -->
<!DOCTYPE svg PUBLIC "-//W3C//DTD SVG 1.1//EN" "http://www.w3.org/Graphics/SVG/1.1/DTD/svg11.dtd">
<svg version="1.1" id="Layer_1" xmlns="http://www.w3.org/2000/svg" xmlns:xlink="http://www.w3.org/1999/xlink" x="0px" y="0px"
	 width="1.948px" height="1.948px" viewBox="0 0 1.948 1.948" enable-background="new 0 0 1.948 1.948" xml:space="preserve">
<path fill="#00B9B9" d="M263.58,110.315c-15.89,0-28.771,12.881-28.771,28.771s12.881,28.771,28.771,28.771
	c15.891,0,28.771-12.88,28.771-28.771S279.471,110.315,263.58,110.315z M284.534,133.83c0.076,0.304,0.169,0.6,0.232,0.908
	c0.091,0.442,0.144,0.896,0.206,1.348c0.037,0.267,0.094,0.526,0.121,0.795c0.072,0.726,0.111,1.461,0.111,2.206
	c0,0.744-0.039,1.48-0.111,2.206c-0.027,0.269-0.084,0.528-0.121,0.795c-0.062,0.451-0.115,0.905-0.206,1.347
	c-0.063,0.31-0.157,0.605-0.232,0.909c-0.097,0.388-0.181,0.78-0.298,1.158c-0.104,0.334-0.238,0.652-0.356,0.979
	c-0.122,0.335-0.229,0.677-0.367,1.003c-0.146,0.343-0.319,0.669-0.481,1.003c-0.142,0.294-0.27,0.597-0.425,0.883
	c-0.19,0.352-0.41,0.685-0.619,1.024c-0.153,0.25-0.294,0.51-0.458,0.753c-0.238,0.355-0.506,0.689-0.765,1.029
	c-0.159,0.209-0.306,0.429-0.473,0.632c-0.287,0.349-0.601,0.675-0.908,1.005c-0.162,0.174-0.312,0.358-0.479,0.526
	c-0.333,0.334-0.688,0.643-1.042,0.954c-0.164,0.144-0.316,0.301-0.484,0.44c-0.375,0.311-0.772,0.594-1.168,0.88
	c-0.164,0.118-0.318,0.25-0.486,0.363c-0.41,0.279-0.842,0.529-1.271,0.78c-0.17,0.099-0.33,0.21-0.502,0.305
	c-0.441,0.241-0.9,0.451-1.359,0.663c-0.175,0.08-0.342,0.175-0.521,0.25c-0.462,0.198-0.941,0.363-1.42,0.528
	c-0.188,0.065-0.368,0.145-0.558,0.204c-0.477,0.15-0.967,0.267-1.457,0.384c-0.203,0.049-0.4,0.113-0.607,0.156
	c-0.479,0.101-0.971,0.165-1.462,0.232c-0.228,0.032-0.448,0.079-0.679,0.104c-0.475,0.051-0.96,0.064-1.444,0.083
	c-0.237,0.01-0.47,0.039-0.709,0.041v-0.005c-0.052,0-0.103,0.008-0.155,0.008c-11.942,0-21.624-9.681-21.624-21.623
	c0-11.943,9.682-21.624,21.624-21.624c0.052,0,0.103,0.008,0.155,0.008v-0.004c0.194,0.001,0.382,0.026,0.575,0.033
	c0.532,0.018,1.064,0.035,1.587,0.091c0.188,0.02,0.369,0.06,0.556,0.085c0.532,0.07,1.064,0.143,1.583,0.252
	c0.171,0.035,0.335,0.09,0.505,0.13c0.525,0.123,1.049,0.249,1.559,0.41c0.158,0.05,0.309,0.116,0.465,0.17
	c0.511,0.175,1.02,0.352,1.511,0.562c0.153,0.064,0.296,0.146,0.446,0.215c0.485,0.221,0.969,0.443,1.434,0.698
	c0.15,0.083,0.292,0.182,0.441,0.269c0.451,0.261,0.9,0.523,1.33,0.815c0.152,0.104,0.293,0.224,0.443,0.332
	c0.41,0.295,0.822,0.59,1.211,0.912c0.156,0.13,0.297,0.275,0.449,0.409c0.365,0.32,0.732,0.64,1.076,0.983
	c0.16,0.162,0.304,0.34,0.459,0.507c0.315,0.336,0.635,0.669,0.928,1.025c0.162,0.197,0.303,0.41,0.458,0.613
	c0.265,0.346,0.536,0.686,0.778,1.047c0.162,0.239,0.299,0.495,0.451,0.741c0.211,0.344,0.434,0.681,0.626,1.036
	c0.154,0.285,0.28,0.585,0.423,0.877c0.162,0.336,0.338,0.664,0.483,1.009c0.138,0.327,0.245,0.669,0.367,1.004
	c0.119,0.326,0.253,0.645,0.356,0.978C284.354,133.049,284.438,133.442,284.534,133.83z M283.924,139.086
	c0,11.235-9.108,20.343-20.344,20.343s-20.343-9.107-20.343-20.343s9.107-20.344,20.343-20.344S283.924,127.851,283.924,139.086z
	 M302.564,116.622v47.536c0,1.272-0.809,2.332-1.89,2.643v0.012c-0.205,0.059-0.417,0.101-0.639,0.101
	c-1.39,0-2.688-1.248-2.526-2.755c0.488-4.534,3.113-14.274,1.765-18.159c-0.771-2.223-3.6-6.241-3.6-12.908
	c0-12.406,2.904-16.84,4.917-17.875c0.027-0.014,0.055-0.017,0.083-0.029C301.561,114.806,302.564,115.53,302.564,116.622z
	 M231.202,115.348c0.594,3.835,1.161,11.024,1.161,14.75c0,4.578-0.933,4.523-3.646,5.606l1,28.586c0,1.516-1.138,2.755-2.527,2.755
	c-0.125,0-0.245-0.021-0.366-0.04v-0.015c-1.215-0.195-2.161-1.323-2.161-2.7l1-28.586c-2.713-1.082-3.646-1.028-3.646-5.606
	c0-3.726,0.562-10.999,1.146-14.75h0.639l0.146,16.168h1.328l0.333-16.168h0.625l0.291,16.168h0.299h0.202h0.827l0.319-16.168h0.688
	l0.297,16.168h1.328l0.114-16.168H231.202z"/>
</svg>
