<?xml version="1.0" encoding="utf-8"?>
<!-- Generator: Adobe Illustrator 16.0.0, SVG Export Plug-In . SVG Version: 6.00 Build 0)  -->
<!DOCTYPE svg PUBLIC "-//W3C//DTD SVG 1.1//EN" "http://www.w3.org/Graphics/SVG/1.1/DTD/svg11.dtd">
<svg version="1.1" id="Layer_1" xmlns="http://www.w3.org/2000/svg" xmlns:xlink="http://www.w3.org/1999/xlink" x="0px" y="0px"
	 width="155.844px" height="177.922px" viewBox="0 0 155.844 177.922" enable-background="new 0 0 155.844 177.922"
	 xml:space="preserve">
<g>
	<path fill="#00BABA" d="M127.818,15.54c-12.69-7.397-28.971-3.091-36.37,9.598L61.423,76.699l0,0l-30.019,51.544
		c-7.389,12.694-3.096,28.977,9.598,36.37c12.697,7.394,28.979,3.098,36.375-9.601l30.021-51.547l-3.939-2.294L65.365,78.987
		l-0.226-0.131l0.22,0.128l38.099,22.187l3.938,2.295l30.03-51.552C144.813,39.217,140.517,22.934,127.818,15.54z M134.634,50.295
		l-29.907,51.429L64.33,78.197l29.904-51.438c3.143-5.397,8.196-9.242,14.232-10.836c6.039-1.594,12.33-0.742,17.729,2.4
		C137.332,24.809,141.116,39.15,134.634,50.295z"/>
</g>
</svg>
