<?xml version="1.0" encoding="utf-8"?>
<!-- Generator: Adobe Illustrator 16.0.0, SVG Export Plug-In . SVG Version: 6.00 Build 0)  -->
<!DOCTYPE svg PUBLIC "-//W3C//DTD SVG 1.1//EN" "http://www.w3.org/Graphics/SVG/1.1/DTD/svg11.dtd">
<svg version="1.1" id="Layer_1" xmlns="http://www.w3.org/2000/svg" xmlns:xlink="http://www.w3.org/1999/xlink" x="0px" y="0px"
	 width="226.624px" height="151.948px" viewBox="0 0 226.624 151.948" enable-background="new 0 0 226.624 151.948"
	 xml:space="preserve">
<path fill="#00BABA" d="M207.007,95.686c1.818-1.204,3.084-3.793,3.084-6.819c0-3.023-1.266-5.616-3.084-6.819"/>
<path fill="#00BABA" d="M162.676,23.635h-28.173v-7.182c0-2.826,1.078-5.656,3.234-7.812c2.158-2.158,4.984-3.236,7.814-3.236h6.076
	c2.828,0,5.655,1.078,7.813,3.236c2.155,2.155,3.234,4.985,3.234,7.812V23.635z"/>
<path fill="#00BABA" d="M207.31,82.269c-0.096-1.081-0.274-2.174-0.52-3.254c-0.424-1.898-1.059-3.712-1.855-5.409l-23.158-49.028
	c-0.891-1.867-2.289-3.521-4.166-4.719c-1.877-1.188-3.966-1.749-6.045-1.749H22.919V123.07h28.257
	c0-13.986,11.335-25.319,25.321-25.319c13.986,0,25.321,11.333,25.321,25.319h28.629c0-13.986,11.335-25.319,25.319-25.319
	c13.986,0,25.321,11.333,25.321,25.319h26.337V84.696C207.425,83.891,207.384,83.085,207.31,82.269z M100.62,69.481H85.892v14.739
	H67.103V69.481H52.375V50.703h14.728V35.976h18.789v14.728h14.728V69.481z M144.231,76.851c-1.135,0-2.27-0.435-3.129-1.293
	c-0.869-0.869-1.293-2.004-1.293-3.128V36.241c0-1.008,0.382-2.025,1.156-2.8c0.773-0.765,1.781-1.155,2.799-1.155h22.596
	c1.633,0,3.276,0.455,4.739,1.421c1.474,0.954,2.545,2.279,3.192,3.774l13.678,31.375c0.742,1.708,0.636,3.742-0.457,5.407
	c-1.102,1.676-2.915,2.587-4.781,2.587H144.231z"/>
<path fill="#00BABA" d="M76.498,100.783c-12.31,0-22.277,9.977-22.277,22.287c0,12.3,9.967,22.277,22.277,22.277
	c12.311,0,22.278-9.978,22.278-22.277C98.775,110.76,88.809,100.783,76.498,100.783z M76.498,132.094
	c-4.983,0-9.023-4.04-9.023-9.023c0-4.984,4.04-9.022,9.023-9.022s9.023,4.038,9.023,9.022
	C85.521,128.054,81.481,132.094,76.498,132.094z"/>
<path fill="#00BABA" d="M156.085,100.783c-12.31,0-22.276,9.977-22.276,22.287c0,12.3,9.967,22.277,22.276,22.277
	c12.301,0,22.277-9.978,22.277-22.277C178.362,110.76,168.386,100.783,156.085,100.783z M156.085,132.094
	c-4.982,0-9.022-4.04-9.022-9.023c0-4.984,4.04-9.022,9.022-9.022c4.984,0,9.024,4.038,9.024,9.022
	C165.109,128.054,161.069,132.094,156.085,132.094z"/>
<path fill="#00BABA" d="M214.88,118.65c0,2.44-1.979,4.418-4.42,4.418h-19.887c-2.441,0-4.42-1.978-4.42-4.418v-9.206
	c0-2.442,1.979-4.419,4.42-4.419h19.887c2.44,0,4.42,1.977,4.42,4.419V118.65z"/>
<path fill="#00BABA" d="M43.088,118.65c0,2.44-1.977,4.418-4.419,4.418H18.782c-2.438,0-4.419-1.978-4.419-4.418v-9.206
	c0-2.442,1.981-4.419,4.419-4.419h19.887c2.443,0,4.419,1.977,4.419,4.419V118.65z"/>
</svg>
