<?xml version="1.0" encoding="utf-8"?>
<!-- Generator: Adobe Illustrator 16.0.0, SVG Export Plug-In . SVG Version: 6.00 Build 0)  -->
<!DOCTYPE svg PUBLIC "-//W3C//DTD SVG 1.1//EN" "http://www.w3.org/Graphics/SVG/1.1/DTD/svg11.dtd">
<svg version="1.1" id="Layer_1" xmlns="http://www.w3.org/2000/svg" xmlns:xlink="http://www.w3.org/1999/xlink" x="0px" y="0px"
	 width="334.074px" height="342.963px" viewBox="0 0 334.074 342.963" enable-background="new 0 0 334.074 342.963"
	 xml:space="preserve">
<g>
	<g>
		<circle fill="#FFFFFF" cx="165.581" cy="169.315" r="153.114"/>
		<g>
			<g>
				<path fill="#FFFFFF" d="M165.581,16.201v306.228c84.563,0,153.113-68.552,153.113-153.114
					C318.694,84.752,250.145,16.201,165.581,16.201z"/>
			</g>
		</g>
	</g>
	<g>
		<path fill="#79D1C0" d="M246.694,218.619l-26.229-26.234c-5.222-5.2-13.878-5.043-19.283,0.363l-13.213,13.215
			c-0.836-0.463-1.697-0.944-2.608-1.453c-8.343-4.624-19.766-10.959-31.786-22.988c-12.051-12.053-18.396-23.492-23.033-31.842
			c-0.491-0.885-0.96-1.738-1.421-2.548l8.869-8.855l4.358-4.367c5.415-5.416,5.564-14.064,0.352-19.284l-26.23-26.235
			c-5.21-5.21-13.866-5.053-19.282,0.363l-7.393,7.435l0.204,0.201c-2.479,3.163-4.553,6.811-6.092,10.744
			c-1.422,3.745-2.308,7.318-2.712,10.899c-3.461,28.713,9.659,54.956,45.267,90.564c49.222,49.219,88.888,45.5,90.6,45.319
			c3.727-0.445,7.298-1.336,10.928-2.746c3.903-1.527,7.548-3.592,10.707-6.064l0.161,0.143l7.489-7.334
			C251.752,232.497,251.903,223.848,246.694,218.619z"/>
	</g>
</g>
</svg>
